HIERARCHY
ROOT Hips
{
	OFFSET	0	0	0
	CHANNELS 6  Xposition Yposition Zposition Xrotation Yrotation Zrotation
	JOINT Spine
	{
		OFFSET	0	6.81137	1.36784
		CHANNELS 3  Xrotation Yrotation Zrotation
		JOINT Spine1
		{
			OFFSET	0	11.6648	-2.083
			CHANNELS 3  Xrotation Yrotation Zrotation
			JOINT Spine2
			{
				OFFSET	0	8.84235	0.947767
				CHANNELS 3  Xrotation Yrotation Zrotation
				JOINT Spine3
				{
					OFFSET	0	10.5817	3.14534
					CHANNELS 3  Xrotation Yrotation Zrotation
					JOINT Spine4
					{
						OFFSET	0	15.6642	-1.60391
						CHANNELS 3  Xrotation Yrotation Zrotation
						JOINT Neck
						{
							OFFSET	0	7.47798	-5.23875
							CHANNELS 3  Xrotation Yrotation Zrotation
							JOINT Head
							{
								OFFSET	0	8.97775	-2.68707
								CHANNELS 3  Xrotation Yrotation Zrotation
								End Site
								{
									OFFSET	0	18.7262	-0.906107
								}
							}
						}
					}
					JOINT LeftShoulder
					{
						OFFSET	-4.49929	19.0387	-8.97775
						CHANNELS 3  Xrotation Yrotation Zrotation
						JOINT LeftArm
						{
							OFFSET	-9.81417	-2.68707	3.44739
							CHANNELS 3  Xrotation Yrotation Zrotation
							JOINT LeftForeArm
							{
								OFFSET	-33.0157	-1.50689	2.35663
								CHANNELS 3  Xrotation Yrotation Zrotation
								JOINT LeftHand
								{
									OFFSET	-25.9733	-1.7949	1.85395
									CHANNELS 3  Xrotation Yrotation Zrotation
									End Site
									{
										OFFSET	-9.47896	-0.655051	0.676554
									}
								}
							}
						}
					}
					JOINT RightShoulder
					{
						OFFSET	4.49929	19.0387	-8.97775
						CHANNELS 3  Xrotation Yrotation Zrotation
						JOINT RightArm
						{
							OFFSET	9.81417	-2.68707	3.44739
							CHANNELS 3  Xrotation Yrotation Zrotation
							JOINT RightForeArm
							{
								OFFSET	33.0157	-1.50689	2.35663
								CHANNELS 3  Xrotation Yrotation Zrotation
								JOINT RightHand
								{
									OFFSET	25.9733	-1.7949	1.85395
									CHANNELS 3  Xrotation Yrotation Zrotation
									End Site
									{
										OFFSET	9.47896	-0.655051	0.676554
									}
								}
							}
						}
					}
				}
			}
		}
	}
	JOINT LeftUpLeg
	{
		OFFSET	-9.2746	-3.40568	-0.68392
		CHANNELS 3  Xrotation Yrotation Zrotation
		JOINT LeftLeg
		{
			OFFSET	-2.10167	-41.1814	-0.643755
			CHANNELS 3  Xrotation Yrotation Zrotation
			JOINT LeftFoot
			{
				OFFSET	-2.05436	-37.8685	3.25669
				CHANNELS 3  Xrotation Yrotation Zrotation
				JOINT LeftToeBase
				{
					OFFSET	0	-4.68304	-12.4382
					CHANNELS 3  Xrotation Yrotation Zrotation
					End Site
					{
						OFFSET	0	-1.87322	-7.49286
					}
				}
			}
		}
	}
	JOINT RightUpLeg
	{
		OFFSET	9.2746	-3.40568	-0.68392
		CHANNELS 3  Xrotation Yrotation Zrotation
		JOINT RightLeg
		{
			OFFSET	2.10167	-41.1814	-0.643755
			CHANNELS 3  Xrotation Yrotation Zrotation
			JOINT RightFoot
			{
				OFFSET	2.05436	-37.8685	3.25669
				CHANNELS 3  Xrotation Yrotation Zrotation
				JOINT RightToeBase
				{
					OFFSET	0	-4.68304	-12.4382
					CHANNELS 3  Xrotation Yrotation Zrotation
					End Site
					{
						OFFSET	0	-1.87322	-7.49286
					}
				}
			}
		}
	}
}
MOTION
Frames: 19
Frame Time: 0.020409
 0 -8.14858 3.02214 -0 0 -0 -0 0 -0 -0 0 -0 -0 0 -0 -0 0 -0 -0 0 -0 -0 0 -0 -0 0 -0 -0 0 -0 -0 0 -0 -0 0 -0 -0 0 -0 -0 0 -0 -0 0 -0 -0 0 -0 -0 0 -0 -0 0 -0 -0 0 -0 -0 0 -0 -0 0 -0 -0 0 -0 -0 0 -0 -0 0 -0 -0 0 -0
 -86.1758 86.166 -272.446 168.584 -61.3468 -177.815 0.00349868 0.0559889 -3.5757 179.351 179.888 174.04 179.697 179.665 174.04 0.529482 0.0559889 -3.5757 177.526 179.949 178.809 174.049 168.395 179.086 177.92 158.257 -178.187 179.948 -169.81 179.892 6.87421 -69.4287 85.011 165.892 -171.055 175.998 -0 -35.0733 -21.5229 176.63 -157.84 -175.238 164.83 145.417 113.631 107.247 145.788 -115.846 -0 -2.96473 -20.5343 19.4939 4.60329 -19.8629 139.681 -160.103 178.066 17.1279 -1.53255 3.23282 0.165839 0 0 3.21538 8.50909 -23.9721 159.294 -170.413 -179.597 15.4466 -0.00431442 -2.95818 0.0977803 0 0
 -85.5494 86.2694 -272.422 167.851 -61.4648 -178.677 0.00341739 0.0552386 -3.54015 179.369 179.89 174.1 179.669 179.67 174.1 0.407811 0.0552386 -3.54015 177.844 179.956 178.821 174.977 168.536 177.846 178.198 157.54 -178.52 179.96 -169.035 179.917 7.05779 -69.7585 85.1405 166.078 -171.175 176.174 -0 -36.41 -22.1635 176.246 -157.096 -174.772 165.236 145.36 113.56 107.233 145.904 -116.413 -0 -2.67393 -20.7969 18.547 4.79649 -19.3227 140.009 -160.479 177.822 17.3276 -1.3575 3.85461 0.158204 0 0 3.68876 9.25806 -23.6437 158.678 -170.539 -179.807 14.3162 0.0117285 -3.16015 0.10536 0 0
 -85.3287 86.3558 -272.493 167.477 -61.7051 -179.065 0.00483317 0.0779089 -3.54986 179.371 179.845 174.084 179.626 179.534 174.083 0.243495 0.0779089 -3.54986 178.224 179.963 178.817 176.11 168.553 176.782 178.543 156.712 -178.816 0.00995132 -11.6276 0.0207993 7.63082 -69.8993 85.2026 166.292 -171.19 176.17 -0 -37.8962 -22.9612 175.96 -156.928 -174.39 165.672 145.409 113.475 107.028 145.894 -116.406 -0 -2.25953 -20.8692 18.1321 4.91351 -18.9426 140.071 -160.842 177.561 17.4752 -1.40766 3.7726 0.148243 0 0 4.02214 10.418 -23.6139 158.283 -171.357 179.989 11.8198 -0.0195232 -3.47787 0.106155 0 0
 -85.2411 86.4308 -272.496 166.848 -61.7479 -179.752 0.00485086 0.0783832 -3.54132 179.418 179.844 174.098 179.623 179.531 174.098 0.124145 0.0783832 -3.54132 178.592 179.971 178.82 177.177 168.369 175.586 178.86 155.339 -179.105 0.858343 -12.0948 1.79845 12.4508 -69.8621 85.4796 166.145 -168.595 175.317 -0 -39.7691 -23.9165 175.737 -156.954 -174.075 166.234 145.59 112.775 107.109 145.997 -116.441 -0 -1.88503 -20.9335 17.6384 4.87129 -18.5007 140.284 -161.498 177.286 17.3751 -1.4791 4.02329 0.142728 0 0 4.12828 11.7809 -23.9741 158.326 -172.171 -179.767 10.2412 -0.0431509 -3.23079 0.119304 0 0
 -85.1081 86.3667 -273.171 166.437 -62.4 179.222 0.00742099 0.12065 -3.51974 179.437 179.76 174.134 179.65 179.279 174.133 0.106258 0.12065 -3.51974 178.66 179.973 178.827 177.428 167.858 174.994 178.907 153.891 -179.156 1.21245 -12.2981 2.54332 16.6176 -69.7962 85.7089 165.964 -165.84 174.598 -0 -41.5032 -24.744 175.51 -157.245 -173.718 166.208 145.945 112.496 107.482 146.241 -116.534 -0 -1.79369 -20.889 17.3673 4.93213 -16.8827 140.105 -162.667 177.222 17.4083 -1.34114 4.29529 0.135942 0 0 4.25646 12.723 -24.2828 158.653 -171.854 -177.365 13.687 0.691117 3.49562 0.173711 0 0
 -84.9292 86.3375 -273.09 166.139 -62.7035 178.815 0.00609288 0.0994417 -3.50618 179.452 179.802 174.156 179.654 179.405 174.156 0.110007 0.0994417 -3.50618 178.684 179.973 178.832 177.575 167.089 174.736 178.91 152.302 -179.088 1.02721 -11.6503 2.1478 17.558 -69.4763 82.8346 165.804 -163.973 174.038 -0 -43.5768 -25.7524 175.318 -157.23 -173.447 166.623 146.749 111.626 107.356 146.251 -116.69 -0 -1.76032 -20.6336 17.0569 4.23931 -16.5588 139.941 -163.436 177.369 17.6497 -1.68447 3.71412 0.132222 0 0 3.67566 13.5041 -24.0663 159.095 -172.1 -177.551 13.9084 0.749898 4.40747 0.184179 0 0
 -84.8027 86.1863 -273.145 166.016 -62.9791 178.619 0.00334694 0.054698 -3.50153 179.434 179.891 174.164 179.605 179.673 174.164 0.064435 0.054698 -3.50153 178.768 179.975 178.833 177.942 166.201 174.636 178.978 150.675 -178.988 1.27036 -11.9475 2.66044 20.1258 -69.5866 85.0168 165.551 -161.67 173.465 -0 -45.3493 -26.4209 175.194 -157.317 -173.26 166.911 147.603 111.068 107.331 146.333 -116.811 -0 -1.73996 -20.3896 17.2879 3.52987 -16.6635 139.403 -163.784 177.995 17.8793 -1.30962 4.75807 0.127792 0 0 4.22177 13.7719 -23.9746 158.148 -172.073 -177.95 14.4255 0.821375 4.02149 0.185659 0 0
 -84.8788 86.0936 -273.17 166.622 -63.1946 179.11 0.00161187 0.0266991 -3.45486 179.405 179.947 174.242 179.593 179.84 174.242 0.133528 0.0266991 -3.45486 178.559 179.971 178.849 177.491 165.078 174.821 178.757 148.847 -178.701 1.50393 -12.4883 3.15821 26.5691 -69.4739 88.6469 165.283 -158.647 172.562 -0 -47.0661 -27.1434 175.234 -157.478 -173.293 167.068 147.833 110.792 107.365 146.335 -116.93 -0 -1.54287 -20.1761 17.5789 2.87266 -16.7295 139.025 -164.289 178.78 18.193 -0.785009 6.88463 0.122128 0 0 4.69341 13.9659 -23.7403 157.501 -171.542 -178.47 14.8776 0.781214 3.04695 0.188608 0 0
 -84.6612 85.953 -273.168 166.408 -64.3258 178.746 180 -179.998 176.54 179.365 -179.996 174.233 179.585 -179.987 174.233 0.240662 -0.00210195 -3.46027 178.24 179.965 178.847 176.724 163.917 175.328 178.42 147.196 -178.295 1.35132 -12.8096 2.8416 29.0619 -69.404 89.5826 165.151 -157.155 172.286 -0 -48.5101 -27.7956 175.64 -157.621 -173.853 167.9 148.19 110.315 107.599 146.5 -116.951 -0 -1.397 -20.0262 18.0341 2.35014 -16.9231 138.249 -164.041 -179.753 18.9819 0.0172748 11.4947 0.116682 0 0 5.1437 13.6111 -23.4692 156.319 -171.119 -179.119 15.4607 0.349706 0.07978 0.179137 0 0
 -85.1904 85.9273 -272.662 166.605 -64.5569 179.639 0.00250022 0.04093 -3.49559 179.341 179.918 174.174 179.597 179.755 174.174 0.277376 0.04093 -3.49559 178.098 179.961 178.835 176.473 162.771 176.092 178.26 145.825 -177.891 0.764715 -12.6351 1.60628 28.3805 -69.2841 87.9277 165.16 -156.769 172.275 -0 -49.6553 -28.3834 175.671 -157.643 -173.894 168.359 148.216 110.424 107.603 146.596 -117.552 -0 -1.12322 -20.2728 18.211 1.22724 -16.8172 138.195 -165.507 177.754 19.0746 -1.42152 4.02943 0.0909332 0 0 5.75264 13.2197 -24.4091 155.873 -170.557 -179.938 14.3698 0.121339 -2.42597 0.171569 0 0
 -85.3922 85.9027 -272.723 167.792 -63.6295 -179.378 0.000919545 0.0151092 -3.48272 179.353 179.97 174.195 179.605 179.91 174.195 0.305408 0.0151092 -3.48272 178.061 179.961 178.84 176.453 162.05 176.069 178.187 144.513 -177.742 1.38448 -13.2684 2.91736 34.1619 -69.0207 90.6058 165.246 -156.551 172.037 -0 -50.4108 -28.821 175.709 -157.758 -173.935 168.905 148.034 110.402 107.545 146.666 -117.6 -0 -0.717459 -20.7513 18.4015 0.897287 -16.6009 138.172 -165.432 177.846 19.0375 -0.919998 4.32268 0.0984574 0 0 6.70435 12.9696 -24.183 155.386 -170.086 179.659 14.4921 0.114592 -2.5383 0.181993 0 0
 -84.9655 85.8464 -273.431 168.878 -63.3217 -179.012 179.999 -179.981 176.527 179.517 -179.962 174.212 179.714 -179.887 174.212 0.293119 -0.0189718 -3.47273 178.409 179.968 178.843 177.454 161.301 175.768 178.465 143.061 -177.776 1.4283 -14.115 3.02065 38.4761 -68.9743 91.6493 165.348 -156.818 172.264 -0 -51.0217 -29.2491 175.572 -157.971 -173.711 169.609 147.74 110.461 108.002 146.987 -118.153 -0 -0.395545 -21.3157 18.7241 0.862901 -15.0732 137.76 -165.713 177.692 19.2367 -1.35974 1.92145 0.0806453 0 0 6.94216 13.2386 -23.9135 155.322 -169.48 -178.256 16.2112 2.21579 4.26541 0.239841 0 0
 -85.2261 85.9136 -273.65 170.007 -62.8739 -177.994 180 -179.992 176.477 179.639 -179.985 174.128 179.781 -179.954 174.128 0.194034 -0.00766882 -3.523 178.868 179.977 178.826 178.835 160.643 175.512 178.898 141.894 -177.887 1.47073 -16.1185 3.13423 43.9899 -70.129 94.2036 165.571 -156.605 172.332 -0 -51.2779 -29.5939 175.651 -158.456 -173.764 169.906 147.463 110.829 108.662 147.451 -119.389 -0 -0.0828723 -21.9559 19.1767 1.01384 -15.0747 138.093 -165.542 177.719 18.9063 -1.24151 2.26627 0.0803655 0 0 7.71354 13.2036 -23.8727 155.257 -169.416 -178.129 15.9732 1.93117 3.72855 0.25092 0 0
 -85.7446 85.8665 -273.774 171.282 -62.7052 -176.614 0.000146978 0.00234002 -3.59405 179.742 179.995 174.01 179.865 179.986 174.01 0.194168 0.00234002 -3.59405 179.059 179.98 178.802 179.331 160.469 175.664 179.068 141.83 -177.897 1.24704 -18.2238 2.67481 44.0111 -73.0085 92.8731 165.545 -156.205 172.25 -0 -51.6339 -29.6772 175.979 -159.01 -174.175 170.219 147.221 110.931 109.393 147.97 -120.667 -0 0.328053 -22.6191 19.939 1.18931 -15.1558 137.809 -165.297 177.429 18.8892 -1.27782 2.63261 0.0872408 0 0 8.83936 12.8546 -24.1762 154.838 -169.643 -178.096 15.7664 1.97077 3.91182 0.276358 0 0
 -86.1356 85.821 -273.967 171.57 -62.6559 -176.299 0.00217816 0.0341187 -3.65283 179.818 179.932 173.912 179.935 179.796 173.912 0.184317 0.0341187 -3.65283 179.217 179.983 178.783 179.763 160.283 175.801 179.214 141.725 -177.898 0.903179 -19.6518 1.94411 42.392 -75.6061 90.9122 165.52 -155.524 171.969 -0 -52.0769 -29.8075 176.207 -159.199 -174.488 170.278 147.101 111.444 109.9 148.362 -121.66 -0 0.756769 -23.2372 20.0772 1.14942 -14.6307 137.285 -164.892 177.034 19.0129 -2.06368 1.44974 0.1011 0 0 9.60742 12.3461 -24.386 154.228 -169.898 -177.806 15.7781 2.1101 3.92248 0.288164 0 0
 -86.3673 85.8445 -274.098 172.068 -62.4299 -175.734 0.00273616 0.0422988 -3.70111 179.904 179.916 173.831 0.00805836 0.252851 -6.16857 0.189493 0.0422988 -3.70111 179.366 179.986 178.766 0.15325 19.985 -3.85205 179.346 141.689 -177.839 0.528802 -21.1971 1.14189 40.8255 -77.9856 90.1045 165.473 -154.982 171.858 -0 -52.4689 -29.8048 176.392 -159.243 -174.753 170.254 147.01 111.898 110.132 148.616 -122.185 -0 1.19965 -23.7831 20.5343 1.3608 -14.8042 137.312 -164.857 176.963 18.8641 -2.08199 1.53532 0.0985349 0 0 10.0283 12.0661 -24.5854 154.164 -169.998 -177.49 15.6355 2.06347 3.69115 0.30461 0 0
 -86.2334 85.8067 -274.037 172.519 -62.0816 -175.376 0.000803028 0.0122987 -3.73577 0.00362218 0.0245043 -6.22628 0.0750632 0.0735129 -6.22628 0.199718 0.0122987 -3.73577 179.538 179.99 178.755 0.588771 20.2772 -3.46049 179.495 141.679 -177.774 0.16652 -22.2803 0.360238 34.0323 -79.95 84.5949 165.68 -155.886 172.011 -0 -52.139 -29.6473 176.512 -159.044 -174.95 170.04 146.757 112.362 110.106 148.703 -122.552 -0 1.70697 -24.3378 20.9111 1.74509 -15.2853 137.346 -164.884 177.394 18.8599 -1.73759 2.63292 0.107215 0 0 10.1565 11.7497 -24.5491 153.898 -170.049 -177.324 15.8618 2.0808 3.26814 0.31422 0 0
 -86.185 85.7242 -274.061 173.509 -62.1227 -174.383 0.00141743 0.0214856 -3.7744 179.987 179.957 173.709 0.0396783 0.128416 -6.29068 0.118664 0.0214856 -3.7744 179.694 179.993 178.742 1.1011 20.6881 -2.8154 179.672 141.76 -177.651 0.256363 -24.1886 0.555951 27.5396 -81.8687 80.5514 165.99 -157.853 172.961 -0 -51.854 -29.4122 176.725 -158.782 -175.285 169.614 146.532 112.832 110.015 148.63 -122.183 -0 2.40383 -24.8616 21.403 2.19093 -15.5701 137.101 -165.037 177.675 19.2127 -1.66044 3.26472 0.107549 0 0 10.5094 11.4211 -24.6536 153.801 -170.047 -177.049 16.0096 2.13986 3.19175 0.328266 0 0
